solid OpenSCAD_Model
  facet normal 0 0 -1
    outer loop
      vertex 60.2 28.2 -4.5
      vertex 39.44 30.25 -4.5
      vertex 45.04 30.25 -4.5
    endloop
  endfacet
  facet normal 0 0 -1
    outer loop
      vertex 39.44 30.25 -4.5
      vertex 19.76 30.25 -4.5
      vertex 39.44 32.75 -4.5
    endloop
  endfacet
  facet normal 0 0 -1
    outer loop
      vertex 3 28.2 -4.5
      vertex 39.44 30.25 -4.5
      vertex 60.2 28.2 -4.5
    endloop
  endfacet
  facet normal -0 0 -1
    outer loop
      vertex 39.44 30.25 -4.5
      vertex 3 28.2 -4.5
      vertex 19.76 30.25 -4.5
    endloop
  endfacet
  facet normal -0 0 -1
    outer loop
      vertex 14.16 30.25 -4.5
      vertex 3 28.2 -4.5
      vertex 14.16 32.75 -4.5
    endloop
  endfacet
  facet normal -0 0 -1
    outer loop
      vertex 19.76 30.25 -4.5
      vertex 3 28.2 -4.5
      vertex 14.16 30.25 -4.5
    endloop
  endfacet
  facet normal 0 0 -1
    outer loop
      vertex 62.25 14.16 -4.5
      vertex 64.75 21.04 -4.5
      vertex 64.75 14.16 -4.5
    endloop
  endfacet
  facet normal -0 0 -1
    outer loop
      vertex 64.75 21.04 -4.5
      vertex 62.25 14.16 -4.5
      vertex 62.25 21.04 -4.5
    endloop
  endfacet
  facet normal 0 0 -1
    outer loop
      vertex 64.75 14.16 -4.5
      vertex 65 0.25441 -4.5
      vertex 64.75 8.56 -4.5
    endloop
  endfacet
  facet normal 0 0 -1
    outer loop
      vertex 60.2 3 -4.5
      vertex 65 0.25441 -4.5
      vertex 62.9456 -1.8 -4.5
    endloop
  endfacet
  facet normal 0 0 -1
    outer loop
      vertex 65 0.25441 -4.5
      vertex 60.2 3 -4.5
      vertex 64.75 8.56 -4.5
    endloop
  endfacet
  facet normal 0 0 -1
    outer loop
      vertex 60.2 3 -4.5
      vertex 62.25 14.16 -4.5
      vertex 62.25 8.56 -4.5
    endloop
  endfacet
  facet normal 0 0 -1
    outer loop
      vertex 60.2 28.2 -4.5
      vertex 62.25 14.16 -4.5
      vertex 60.2 3 -4.5
    endloop
  endfacet
  facet normal 0 0 -1
    outer loop
      vertex 62.25 14.16 -4.5
      vertex 60.2 28.2 -4.5
      vertex 62.25 21.04 -4.5
    endloop
  endfacet
  facet normal -0 0 -1
    outer loop
      vertex 64.75 8.56 -4.5
      vertex 60.2 3 -4.5
      vertex 62.25 8.56 -4.5
    endloop
  endfacet
  facet normal 0 0 -1
    outer loop
      vertex 62.9456 -1.8 -4.5
      vertex 52.2 -1.55 -4.5
      vertex 60.2 3 -4.5
    endloop
  endfacet
  facet normal 0 0 -1
    outer loop
      vertex 62.9456 -1.8 -4.5
      vertex 46.6 -1.55 -4.5
      vertex 52.2 -1.55 -4.5
    endloop
  endfacet
  facet normal 0 0 -1
    outer loop
      vertex 46.6 -1.55 -4.5
      vertex 20.6 -1.55 -4.5
      vertex 46.6 0.95 -4.5
    endloop
  endfacet
  facet normal 0 0 -1
    outer loop
      vertex 62.9456 -1.8 -4.5
      vertex 20.6 -1.55 -4.5
      vertex 46.6 -1.55 -4.5
    endloop
  endfacet
  facet normal 0 0 -1
    outer loop
      vertex 0.25441 -1.8 -4.5
      vertex 20.6 -1.55 -4.5
      vertex 62.9456 -1.8 -4.5
    endloop
  endfacet
  facet normal 0 0 -1
    outer loop
      vertex 15 -1.55 -4.5
      vertex 3 3 -4.5
      vertex 15 0.95 -4.5
    endloop
  endfacet
  facet normal 0 0 -1
    outer loop
      vertex -1.8 0.25441 -4.5
      vertex 3 3 -4.5
      vertex 0.25441 -1.8 -4.5
    endloop
  endfacet
  facet normal -0 0 -1
    outer loop
      vertex 15 -1.55 -4.5
      vertex 0.25441 -1.8 -4.5
      vertex 3 3 -4.5
    endloop
  endfacet
  facet normal -0 0 -1
    outer loop
      vertex 20.6 -1.55 -4.5
      vertex 0.25441 -1.8 -4.5
      vertex 15 -1.55 -4.5
    endloop
  endfacet
  facet normal 0 0 -1
    outer loop
      vertex 65 0.25441 -4.5
      vertex 64.75 14.16 -4.5
      vertex 65 30.9456 -4.5
    endloop
  endfacet
  facet normal 0 0 -1
    outer loop
      vertex 64.75 21.04 -4.5
      vertex 65 30.9456 -4.5
      vertex 64.75 14.16 -4.5
    endloop
  endfacet
  facet normal 0 0 -1
    outer loop
      vertex 64.75 26.64 -4.5
      vertex 65 30.9456 -4.5
      vertex 64.75 21.04 -4.5
    endloop
  endfacet
  facet normal 0 0 -1
    outer loop
      vertex 62.25 26.64 -4.5
      vertex 65 30.9456 -4.5
      vertex 64.75 26.64 -4.5
    endloop
  endfacet
  facet normal 0 0 -1
    outer loop
      vertex 60.2 28.2 -4.5
      vertex 65 30.9456 -4.5
      vertex 62.25 26.64 -4.5
    endloop
  endfacet
  facet normal 0 0 -1
    outer loop
      vertex 62.25 21.04 -4.5
      vertex 60.2 28.2 -4.5
      vertex 62.25 26.64 -4.5
    endloop
  endfacet
  facet normal -0 0 -1
    outer loop
      vertex 65 30.9456 -4.5
      vertex 60.2 28.2 -4.5
      vertex 62.9456 33 -4.5
    endloop
  endfacet
  facet normal 0 0 -1
    outer loop
      vertex 45.04 32.75 -4.5
      vertex 60.2 28.2 -4.5
      vertex 45.04 30.25 -4.5
    endloop
  endfacet
  facet normal 0 0 -1
    outer loop
      vertex 60.2 28.2 -4.5
      vertex 45.04 32.75 -4.5
      vertex 62.9456 33 -4.5
    endloop
  endfacet
  facet normal 0 0 -1
    outer loop
      vertex 39.44 32.75 -4.5
      vertex 62.9456 33 -4.5
      vertex 45.04 32.75 -4.5
    endloop
  endfacet
  facet normal 0 0 -1
    outer loop
      vertex 19.76 32.75 -4.5
      vertex 39.44 32.75 -4.5
      vertex 19.76 30.25 -4.5
    endloop
  endfacet
  facet normal 0 0 -1
    outer loop
      vertex 19.76 32.75 -4.5
      vertex 62.9456 33 -4.5
      vertex 39.44 32.75 -4.5
    endloop
  endfacet
  facet normal 0 0 -1
    outer loop
      vertex 0.25441 33 -4.5
      vertex 19.76 32.75 -4.5
      vertex 14.16 32.75 -4.5
    endloop
  endfacet
  facet normal 0 0 -1
    outer loop
      vertex 19.76 32.75 -4.5
      vertex 0.25441 33 -4.5
      vertex 62.9456 33 -4.5
    endloop
  endfacet
  facet normal 0 0 -1
    outer loop
      vertex 3 28.2 -4.5
      vertex 0.25441 33 -4.5
      vertex 14.16 32.75 -4.5
    endloop
  endfacet
  facet normal -0 0 -1
    outer loop
      vertex 3 3 -4.5
      vertex -1.8 0.25441 -4.5
      vertex 3 28.2 -4.5
    endloop
  endfacet
  facet normal 0 0 -1
    outer loop
      vertex -1.8 30.9456 -4.5
      vertex 3 28.2 -4.5
      vertex -1.8 0.25441 -4.5
    endloop
  endfacet
  facet normal 0 0 -1
    outer loop
      vertex 3 28.2 -4.5
      vertex -1.8 30.9456 -4.5
      vertex 0.25441 33 -4.5
    endloop
  endfacet
  facet normal 0 0 -1
    outer loop
      vertex 52.2 0.95 -4.5
      vertex 60.2 3 -4.5
      vertex 52.2 -1.55 -4.5
    endloop
  endfacet
  facet normal 0 0 -1
    outer loop
      vertex 46.6 0.95 -4.5
      vertex 60.2 3 -4.5
      vertex 52.2 0.95 -4.5
    endloop
  endfacet
  facet normal 0 0 -1
    outer loop
      vertex 20.6 0.95 -4.5
      vertex 46.6 0.95 -4.5
      vertex 20.6 -1.55 -4.5
    endloop
  endfacet
  facet normal 0 0 -1
    outer loop
      vertex 46.6 0.95 -4.5
      vertex 20.6 0.95 -4.5
      vertex 60.2 3 -4.5
    endloop
  endfacet
  facet normal 0 0 -1
    outer loop
      vertex 3 3 -4.5
      vertex 20.6 0.95 -4.5
      vertex 15 0.95 -4.5
    endloop
  endfacet
  facet normal 0 0 -1
    outer loop
      vertex 20.6 0.95 -4.5
      vertex 3 3 -4.5
      vertex 60.2 3 -4.5
    endloop
  endfacet
  facet normal 0 0 1
    outer loop
      vertex 65 30.9456 0
      vertex 63.2 30.2 0
      vertex 65 0.25441 0
    endloop
  endfacet
  facet normal 0 0 1
    outer loop
      vertex 62.9456 33 0
      vertex 63.2 30.2 0
      vertex 65 30.9456 0
    endloop
  endfacet
  facet normal 0 0 1
    outer loop
      vertex 62.9456 33 0
      vertex 62.2 31.2 0
      vertex 63.2 30.2 0
    endloop
  endfacet
  facet normal 0 0 1
    outer loop
      vertex 62.9456 33 0
      vertex 1 31.2 0
      vertex 62.2 31.2 0
    endloop
  endfacet
  facet normal -0 0 1
    outer loop
      vertex 0.25441 33 0
      vertex 1 31.2 0
      vertex 62.9456 33 0
    endloop
  endfacet
  facet normal 0 0 1
    outer loop
      vertex 0.25441 33 0
      vertex 0 30.2 0
      vertex 1 31.2 0
    endloop
  endfacet
  facet normal 0 0 1
    outer loop
      vertex 0 30.2 0
      vertex -1.8 30.9456 0
      vertex 0 1 0
    endloop
  endfacet
  facet normal -0 0 1
    outer loop
      vertex -1.8 30.9456 0
      vertex 0 30.2 0
      vertex 0.25441 33 0
    endloop
  endfacet
  facet normal -0 0 1
    outer loop
      vertex 63.2 1 0
      vertex 65 0.25441 0
      vertex 63.2 30.2 0
    endloop
  endfacet
  facet normal 0 0 1
    outer loop
      vertex 63.2 1 0
      vertex 62.9456 -1.8 0
      vertex 65 0.25441 0
    endloop
  endfacet
  facet normal -0 0 1
    outer loop
      vertex 62.2 0 0
      vertex 62.9456 -1.8 0
      vertex 63.2 1 0
    endloop
  endfacet
  facet normal -0 0 1
    outer loop
      vertex 1 0 0
      vertex 62.9456 -1.8 0
      vertex 62.2 0 0
    endloop
  endfacet
  facet normal 0 0 1
    outer loop
      vertex 1 0 0
      vertex 0.25441 -1.8 0
      vertex 62.9456 -1.8 0
    endloop
  endfacet
  facet normal 0 0 1
    outer loop
      vertex 0 1 0
      vertex 0.25441 -1.8 0
      vertex 1 0 0
    endloop
  endfacet
  facet normal 0 0 1
    outer loop
      vertex 0 1 0
      vertex -1.8 0.25441 0
      vertex 0.25441 -1.8 0
    endloop
  endfacet
  facet normal 0 0 1
    outer loop
      vertex -1.8 0.25441 0
      vertex 0 1 0
      vertex -1.8 30.9456 0
    endloop
  endfacet
  facet normal 1 -0 0
    outer loop
      vertex 65 0.25441 0
      vertex 65 30.9456 -4.5
      vertex 65 30.9456 0
    endloop
  endfacet
  facet normal 1 0 0
    outer loop
      vertex 65 30.9456 -4.5
      vertex 65 0.25441 0
      vertex 65 0.25441 -4.5
    endloop
  endfacet
  facet normal 0.707107 0.707107 0
    outer loop
      vertex 65 30.9456 0
      vertex 62.9456 33 -4.5
      vertex 62.9456 33 0
    endloop
  endfacet
  facet normal 0.707107 0.707107 0
    outer loop
      vertex 62.9456 33 -4.5
      vertex 65 30.9456 0
      vertex 65 30.9456 -4.5
    endloop
  endfacet
  facet normal 0 1 -0
    outer loop
      vertex 62.9456 33 -4.5
      vertex 0.25441 33 0
      vertex 62.9456 33 0
    endloop
  endfacet
  facet normal 0 1 0
    outer loop
      vertex 0.25441 33 0
      vertex 62.9456 33 -4.5
      vertex 0.25441 33 -4.5
    endloop
  endfacet
  facet normal -0.707105 0.707109 0
    outer loop
      vertex -1.8 30.9456 -4.5
      vertex 0.25441 33 0
      vertex 0.25441 33 -4.5
    endloop
  endfacet
  facet normal -0.707105 0.707109 0
    outer loop
      vertex 0.25441 33 0
      vertex -1.8 30.9456 -4.5
      vertex -1.8 30.9456 0
    endloop
  endfacet
  facet normal -1 0 0
    outer loop
      vertex -1.8 0.25441 -4.5
      vertex -1.8 30.9456 0
      vertex -1.8 30.9456 -4.5
    endloop
  endfacet
  facet normal -1 -0 0
    outer loop
      vertex -1.8 30.9456 0
      vertex -1.8 0.25441 -4.5
      vertex -1.8 0.25441 0
    endloop
  endfacet
  facet normal -0.707107 -0.707107 0
    outer loop
      vertex 0.25441 -1.8 -4.5
      vertex -1.8 0.25441 0
      vertex -1.8 0.25441 -4.5
    endloop
  endfacet
  facet normal -0.707107 -0.707107 0
    outer loop
      vertex -1.8 0.25441 0
      vertex 0.25441 -1.8 -4.5
      vertex 0.25441 -1.8 0
    endloop
  endfacet
  facet normal 0 -1 0
    outer loop
      vertex 0.25441 -1.8 -4.5
      vertex 62.9456 -1.8 0
      vertex 0.25441 -1.8 0
    endloop
  endfacet
  facet normal 0 -1 -0
    outer loop
      vertex 62.9456 -1.8 0
      vertex 0.25441 -1.8 -4.5
      vertex 62.9456 -1.8 -4.5
    endloop
  endfacet
  facet normal 0.707109 -0.707105 0
    outer loop
      vertex 62.9456 -1.8 0
      vertex 65 0.25441 -4.5
      vertex 65 0.25441 0
    endloop
  endfacet
  facet normal 0.707109 -0.707105 0
    outer loop
      vertex 65 0.25441 -4.5
      vertex 62.9456 -1.8 0
      vertex 62.9456 -1.8 -4.5
    endloop
  endfacet
  facet normal 0.707107 0.707107 0
    outer loop
      vertex 1 0 0
      vertex 0 1 -3
      vertex 0 1 0
    endloop
  endfacet
  facet normal 0.707107 0.707107 0
    outer loop
      vertex 0 1 -3
      vertex 1 0 0
      vertex 1 0 -3
    endloop
  endfacet
  facet normal 1 -0 0
    outer loop
      vertex 0 1 0
      vertex 0 30.2 -3
      vertex 0 30.2 0
    endloop
  endfacet
  facet normal 1 0 0
    outer loop
      vertex 0 30.2 -3
      vertex 0 1 0
      vertex 0 1 -3
    endloop
  endfacet
  facet normal 0.707107 -0.707107 0
    outer loop
      vertex 0 30.2 0
      vertex 1 31.2 -3
      vertex 1 31.2 0
    endloop
  endfacet
  facet normal 0.707107 -0.707107 0
    outer loop
      vertex 1 31.2 -3
      vertex 0 30.2 0
      vertex 0 30.2 -3
    endloop
  endfacet
  facet normal 0 -1 0
    outer loop
      vertex 1 31.2 -3
      vertex 62.2 31.2 0
      vertex 1 31.2 0
    endloop
  endfacet
  facet normal 0 -1 -0
    outer loop
      vertex 62.2 31.2 0
      vertex 1 31.2 -3
      vertex 62.2 31.2 -3
    endloop
  endfacet
  facet normal -0.707107 -0.707107 0
    outer loop
      vertex 63.2 30.2 -3
      vertex 62.2 31.2 0
      vertex 62.2 31.2 -3
    endloop
  endfacet
  facet normal -0.707107 -0.707107 0
    outer loop
      vertex 62.2 31.2 0
      vertex 63.2 30.2 -3
      vertex 63.2 30.2 0
    endloop
  endfacet
  facet normal -1 0 0
    outer loop
      vertex 63.2 1 -3
      vertex 63.2 30.2 0
      vertex 63.2 30.2 -3
    endloop
  endfacet
  facet normal -1 -0 0
    outer loop
      vertex 63.2 30.2 0
      vertex 63.2 1 -3
      vertex 63.2 1 0
    endloop
  endfacet
  facet normal -0.707107 0.707107 0
    outer loop
      vertex 62.2 0 -3
      vertex 63.2 1 0
      vertex 63.2 1 -3
    endloop
  endfacet
  facet normal -0.707107 0.707107 0
    outer loop
      vertex 63.2 1 0
      vertex 62.2 0 -3
      vertex 62.2 0 0
    endloop
  endfacet
  facet normal 0 1 -0
    outer loop
      vertex 62.2 0 -3
      vertex 1 0 0
      vertex 62.2 0 0
    endloop
  endfacet
  facet normal 0 1 0
    outer loop
      vertex 1 0 0
      vertex 62.2 0 -3
      vertex 1 0 -3
    endloop
  endfacet
  facet normal 0 0 1
    outer loop
      vertex 60.2 28.2 -3
      vertex 63.2 30.2 -3
      vertex 62.2 31.2 -3
    endloop
  endfacet
  facet normal 0 0 1
    outer loop
      vertex 63.2 30.2 -3
      vertex 60.2 28.2 -3
      vertex 63.2 1 -3
    endloop
  endfacet
  facet normal -0 0 1
    outer loop
      vertex 60.2 3 -3
      vertex 63.2 1 -3
      vertex 60.2 28.2 -3
    endloop
  endfacet
  facet normal 0 0 1
    outer loop
      vertex 62.2 31.2 -3
      vertex 3 28.2 -3
      vertex 60.2 28.2 -3
    endloop
  endfacet
  facet normal -0 0 1
    outer loop
      vertex 0 30.2 -3
      vertex 3 28.2 -3
      vertex 1 31.2 -3
    endloop
  endfacet
  facet normal -0 0 1
    outer loop
      vertex 1 31.2 -3
      vertex 3 28.2 -3
      vertex 62.2 31.2 -3
    endloop
  endfacet
  facet normal 0 0 1
    outer loop
      vertex 63.2 1 -3
      vertex 60.2 3 -3
      vertex 62.2 0 -3
    endloop
  endfacet
  facet normal -0 0 1
    outer loop
      vertex 3 3 -3
      vertex 62.2 0 -3
      vertex 60.2 3 -3
    endloop
  endfacet
  facet normal 0 0 1
    outer loop
      vertex 3 3 -3
      vertex 1 0 -3
      vertex 62.2 0 -3
    endloop
  endfacet
  facet normal 0 0 1
    outer loop
      vertex 3 28.2 -3
      vertex 0 30.2 -3
      vertex 3 3 -3
    endloop
  endfacet
  facet normal 0 0 1
    outer loop
      vertex 0 1 -3
      vertex 3 3 -3
      vertex 0 30.2 -3
    endloop
  endfacet
  facet normal 0 0 1
    outer loop
      vertex 3 3 -3
      vertex 0 1 -3
      vertex 1 0 -3
    endloop
  endfacet
  facet normal 1 -0 0
    outer loop
      vertex 3 3 -3
      vertex 3 28.2 -4.5
      vertex 3 28.2 -3
    endloop
  endfacet
  facet normal 1 0 0
    outer loop
      vertex 3 28.2 -4.5
      vertex 3 3 -3
      vertex 3 3 -4.5
    endloop
  endfacet
  facet normal 0 -1 0
    outer loop
      vertex 3 28.2 -4.5
      vertex 60.2 28.2 -3
      vertex 3 28.2 -3
    endloop
  endfacet
  facet normal 0 -1 -0
    outer loop
      vertex 60.2 28.2 -3
      vertex 3 28.2 -4.5
      vertex 60.2 28.2 -4.5
    endloop
  endfacet
  facet normal -1 0 0
    outer loop
      vertex 60.2 3 -4.5
      vertex 60.2 28.2 -3
      vertex 60.2 28.2 -4.5
    endloop
  endfacet
  facet normal -1 -0 0
    outer loop
      vertex 60.2 28.2 -3
      vertex 60.2 3 -4.5
      vertex 60.2 3 -3
    endloop
  endfacet
  facet normal 0 1 -0
    outer loop
      vertex 60.2 3 -4.5
      vertex 3 3 -3
      vertex 60.2 3 -3
    endloop
  endfacet
  facet normal 0 1 0
    outer loop
      vertex 3 3 -3
      vertex 60.2 3 -4.5
      vertex 3 3 -4.5
    endloop
  endfacet
  facet normal 0 0 -1
    outer loop
      vertex 15 -1.55 -3.7
      vertex 20.6 0.95 -3.7
      vertex 20.6 -1.55 -3.7
    endloop
  endfacet
  facet normal -0 0 -1
    outer loop
      vertex 20.6 0.95 -3.7
      vertex 15 -1.55 -3.7
      vertex 15 0.95 -3.7
    endloop
  endfacet
  facet normal 0 -1 0
    outer loop
      vertex 15 0.95 -4.5
      vertex 20.6 0.95 -3.7
      vertex 15 0.95 -3.7
    endloop
  endfacet
  facet normal 0 -1 -0
    outer loop
      vertex 20.6 0.95 -3.7
      vertex 15 0.95 -4.5
      vertex 20.6 0.95 -4.5
    endloop
  endfacet
  facet normal 0 1 -0
    outer loop
      vertex 20.6 -1.55 -4.5
      vertex 15 -1.55 -3.7
      vertex 20.6 -1.55 -3.7
    endloop
  endfacet
  facet normal 0 1 0
    outer loop
      vertex 15 -1.55 -3.7
      vertex 20.6 -1.55 -4.5
      vertex 15 -1.55 -4.5
    endloop
  endfacet
  facet normal 1 -0 0
    outer loop
      vertex 15 -1.55 -3.7
      vertex 15 0.95 -4.5
      vertex 15 0.95 -3.7
    endloop
  endfacet
  facet normal 1 0 0
    outer loop
      vertex 15 0.95 -4.5
      vertex 15 -1.55 -3.7
      vertex 15 -1.55 -4.5
    endloop
  endfacet
  facet normal -1 0 0
    outer loop
      vertex 20.6 -1.55 -4.5
      vertex 20.6 0.95 -3.7
      vertex 20.6 0.95 -4.5
    endloop
  endfacet
  facet normal -1 -0 0
    outer loop
      vertex 20.6 0.95 -3.7
      vertex 20.6 -1.55 -4.5
      vertex 20.6 -1.55 -3.7
    endloop
  endfacet
  facet normal 0 0 -1
    outer loop
      vertex 46.6 -1.55 -3.7
      vertex 52.2 0.95 -3.7
      vertex 52.2 -1.55 -3.7
    endloop
  endfacet
  facet normal -0 0 -1
    outer loop
      vertex 52.2 0.95 -3.7
      vertex 46.6 -1.55 -3.7
      vertex 46.6 0.95 -3.7
    endloop
  endfacet
  facet normal 0 -1 0
    outer loop
      vertex 46.6 0.95 -4.5
      vertex 52.2 0.95 -3.7
      vertex 46.6 0.95 -3.7
    endloop
  endfacet
  facet normal 0 -1 -0
    outer loop
      vertex 52.2 0.95 -3.7
      vertex 46.6 0.95 -4.5
      vertex 52.2 0.95 -4.5
    endloop
  endfacet
  facet normal 0 1 -0
    outer loop
      vertex 52.2 -1.55 -4.5
      vertex 46.6 -1.55 -3.7
      vertex 52.2 -1.55 -3.7
    endloop
  endfacet
  facet normal 0 1 0
    outer loop
      vertex 46.6 -1.55 -3.7
      vertex 52.2 -1.55 -4.5
      vertex 46.6 -1.55 -4.5
    endloop
  endfacet
  facet normal 1 -0 0
    outer loop
      vertex 46.6 -1.55 -3.7
      vertex 46.6 0.95 -4.5
      vertex 46.6 0.95 -3.7
    endloop
  endfacet
  facet normal 1 0 0
    outer loop
      vertex 46.6 0.95 -4.5
      vertex 46.6 -1.55 -3.7
      vertex 46.6 -1.55 -4.5
    endloop
  endfacet
  facet normal -1 0 0
    outer loop
      vertex 52.2 -1.55 -4.5
      vertex 52.2 0.95 -3.7
      vertex 52.2 0.95 -4.5
    endloop
  endfacet
  facet normal -1 -0 0
    outer loop
      vertex 52.2 0.95 -3.7
      vertex 52.2 -1.55 -4.5
      vertex 52.2 -1.55 -3.7
    endloop
  endfacet
  facet normal 0 -1 0
    outer loop
      vertex 14.16 32.75 -4.5
      vertex 19.76 32.75 -3.7
      vertex 14.16 32.75 -3.7
    endloop
  endfacet
  facet normal 0 -1 -0
    outer loop
      vertex 19.76 32.75 -3.7
      vertex 14.16 32.75 -4.5
      vertex 19.76 32.75 -4.5
    endloop
  endfacet
  facet normal 0 0 -1
    outer loop
      vertex 14.16 30.25 -3.7
      vertex 19.76 32.75 -3.7
      vertex 19.76 30.25 -3.7
    endloop
  endfacet
  facet normal -0 0 -1
    outer loop
      vertex 19.76 32.75 -3.7
      vertex 14.16 30.25 -3.7
      vertex 14.16 32.75 -3.7
    endloop
  endfacet
  facet normal 0 1 -0
    outer loop
      vertex 19.76 30.25 -4.5
      vertex 14.16 30.25 -3.7
      vertex 19.76 30.25 -3.7
    endloop
  endfacet
  facet normal 0 1 0
    outer loop
      vertex 14.16 30.25 -3.7
      vertex 19.76 30.25 -4.5
      vertex 14.16 30.25 -4.5
    endloop
  endfacet
  facet normal -1 0 0
    outer loop
      vertex 19.76 30.25 -4.5
      vertex 19.76 32.75 -3.7
      vertex 19.76 32.75 -4.5
    endloop
  endfacet
  facet normal -1 -0 0
    outer loop
      vertex 19.76 32.75 -3.7
      vertex 19.76 30.25 -4.5
      vertex 19.76 30.25 -3.7
    endloop
  endfacet
  facet normal 1 -0 0
    outer loop
      vertex 14.16 30.25 -3.7
      vertex 14.16 32.75 -4.5
      vertex 14.16 32.75 -3.7
    endloop
  endfacet
  facet normal 1 0 0
    outer loop
      vertex 14.16 32.75 -4.5
      vertex 14.16 30.25 -3.7
      vertex 14.16 30.25 -4.5
    endloop
  endfacet
  facet normal 0 -1 0
    outer loop
      vertex 39.44 32.75 -4.5
      vertex 45.04 32.75 -3.7
      vertex 39.44 32.75 -3.7
    endloop
  endfacet
  facet normal 0 -1 -0
    outer loop
      vertex 45.04 32.75 -3.7
      vertex 39.44 32.75 -4.5
      vertex 45.04 32.75 -4.5
    endloop
  endfacet
  facet normal 0 0 -1
    outer loop
      vertex 39.44 30.25 -3.7
      vertex 45.04 32.75 -3.7
      vertex 45.04 30.25 -3.7
    endloop
  endfacet
  facet normal -0 0 -1
    outer loop
      vertex 45.04 32.75 -3.7
      vertex 39.44 30.25 -3.7
      vertex 39.44 32.75 -3.7
    endloop
  endfacet
  facet normal 1 -0 0
    outer loop
      vertex 39.44 30.25 -3.7
      vertex 39.44 32.75 -4.5
      vertex 39.44 32.75 -3.7
    endloop
  endfacet
  facet normal 1 0 0
    outer loop
      vertex 39.44 32.75 -4.5
      vertex 39.44 30.25 -3.7
      vertex 39.44 30.25 -4.5
    endloop
  endfacet
  facet normal 0 1 -0
    outer loop
      vertex 45.04 30.25 -4.5
      vertex 39.44 30.25 -3.7
      vertex 45.04 30.25 -3.7
    endloop
  endfacet
  facet normal 0 1 0
    outer loop
      vertex 39.44 30.25 -3.7
      vertex 45.04 30.25 -4.5
      vertex 39.44 30.25 -4.5
    endloop
  endfacet
  facet normal -1 0 0
    outer loop
      vertex 45.04 30.25 -4.5
      vertex 45.04 32.75 -3.7
      vertex 45.04 32.75 -4.5
    endloop
  endfacet
  facet normal -1 -0 0
    outer loop
      vertex 45.04 32.75 -3.7
      vertex 45.04 30.25 -4.5
      vertex 45.04 30.25 -3.7
    endloop
  endfacet
  facet normal 1 -0 0
    outer loop
      vertex 62.25 8.56 -3.7
      vertex 62.25 14.16 -4.5
      vertex 62.25 14.16 -3.7
    endloop
  endfacet
  facet normal 1 0 0
    outer loop
      vertex 62.25 14.16 -4.5
      vertex 62.25 8.56 -3.7
      vertex 62.25 8.56 -4.5
    endloop
  endfacet
  facet normal 0 0 -1
    outer loop
      vertex 62.25 8.56 -3.7
      vertex 64.75 14.16 -3.7
      vertex 64.75 8.56 -3.7
    endloop
  endfacet
  facet normal -0 0 -1
    outer loop
      vertex 64.75 14.16 -3.7
      vertex 62.25 8.56 -3.7
      vertex 62.25 14.16 -3.7
    endloop
  endfacet
  facet normal -1 0 0
    outer loop
      vertex 64.75 8.56 -4.5
      vertex 64.75 14.16 -3.7
      vertex 64.75 14.16 -4.5
    endloop
  endfacet
  facet normal -1 -0 0
    outer loop
      vertex 64.75 14.16 -3.7
      vertex 64.75 8.56 -4.5
      vertex 64.75 8.56 -3.7
    endloop
  endfacet
  facet normal 0 1 -0
    outer loop
      vertex 64.75 8.56 -4.5
      vertex 62.25 8.56 -3.7
      vertex 64.75 8.56 -3.7
    endloop
  endfacet
  facet normal 0 1 0
    outer loop
      vertex 62.25 8.56 -3.7
      vertex 64.75 8.56 -4.5
      vertex 62.25 8.56 -4.5
    endloop
  endfacet
  facet normal 0 -1 0
    outer loop
      vertex 62.25 14.16 -4.5
      vertex 64.75 14.16 -3.7
      vertex 62.25 14.16 -3.7
    endloop
  endfacet
  facet normal 0 -1 -0
    outer loop
      vertex 64.75 14.16 -3.7
      vertex 62.25 14.16 -4.5
      vertex 64.75 14.16 -4.5
    endloop
  endfacet
  facet normal 1 -0 0
    outer loop
      vertex 62.25 21.04 -3.7
      vertex 62.25 26.64 -4.5
      vertex 62.25 26.64 -3.7
    endloop
  endfacet
  facet normal 1 0 0
    outer loop
      vertex 62.25 26.64 -4.5
      vertex 62.25 21.04 -3.7
      vertex 62.25 21.04 -4.5
    endloop
  endfacet
  facet normal 0 0 -1
    outer loop
      vertex 62.25 21.04 -3.7
      vertex 64.75 26.64 -3.7
      vertex 64.75 21.04 -3.7
    endloop
  endfacet
  facet normal -0 0 -1
    outer loop
      vertex 64.75 26.64 -3.7
      vertex 62.25 21.04 -3.7
      vertex 62.25 26.64 -3.7
    endloop
  endfacet
  facet normal -1 0 0
    outer loop
      vertex 64.75 21.04 -4.5
      vertex 64.75 26.64 -3.7
      vertex 64.75 26.64 -4.5
    endloop
  endfacet
  facet normal -1 -0 0
    outer loop
      vertex 64.75 26.64 -3.7
      vertex 64.75 21.04 -4.5
      vertex 64.75 21.04 -3.7
    endloop
  endfacet
  facet normal 0 1 -0
    outer loop
      vertex 64.75 21.04 -4.5
      vertex 62.25 21.04 -3.7
      vertex 64.75 21.04 -3.7
    endloop
  endfacet
  facet normal 0 1 0
    outer loop
      vertex 62.25 21.04 -3.7
      vertex 64.75 21.04 -4.5
      vertex 62.25 21.04 -4.5
    endloop
  endfacet
  facet normal 0 -1 0
    outer loop
      vertex 62.25 26.64 -4.5
      vertex 64.75 26.64 -3.7
      vertex 62.25 26.64 -3.7
    endloop
  endfacet
  facet normal 0 -1 -0
    outer loop
      vertex 64.75 26.64 -3.7
      vertex 62.25 26.64 -4.5
      vertex 64.75 26.64 -4.5
    endloop
  endfacet
endsolid OpenSCAD_Model
